# xmcd
#
# Track frame offsets:
# 150
# 15067
# 34452
# 61767
# 82522
# 99110
# 116437
# 136817
# 155357
# 182025
#
# Disc length: 2686 seconds
#
#
# Revision: 1
# Processed by: cddbd v1.5.1PL2 Copyright (c) Steve Scherf et al.
# Submitted via: FreeRIP 2.944 
#
DISCID=610a7c0a
DTITLE=Tony D. Band - Get Yourself Some
DYEAR=1993
DGENRE=Bluesrock
TTITLE0=Ride Till You Die
TTITLE1=Hot Little Mama
TTITLE2=Everybody Wants To Get To Heaven
TTITLE3=Wild About You
TTITLE4=Trouble In Paradise
TTITLE5=No Turning Back
TTITLE6=Sugar Coated Love
TTITLE7=You Don't See The Blues Like Me
TTITLE8=Not A Day Goes By
TTITLE9=Wonderful Sight
EXTD=
EXTT0=
EXTT1=
EXTT2=
EXTT3=
EXTT4=
EXTT5=
EXTT6=
EXTT7=
EXTT8=
EXTT9=
PLAYORDER=
